<?xml version="1.0" encoding="utf-8"?>
<!-- Generator: Adobe Illustrator 24.1.0, SVG Export Plug-In . SVG Version: 6.00 Build 0)  -->
<svg version="1.1" id="_x38_" xmlns="http://www.w3.org/2000/svg" xmlns:xlink="http://www.w3.org/1999/xlink" x="0px" y="0px"
	 viewBox="0 0 200 200" style="enable-background:new 0 0 200 200;" xml:space="preserve">
<style type="text/css">
	.st0{fill-rule:evenodd;clip-rule:evenodd;fill:#FFFFFF;}
</style>
<g>
	<path class="st0" d="M79.4,7.9H64.8C64.4,18.2,56,26.5,45.6,26.5c-10.3,0-18.7-8.3-19-18.6H12.3c-2.8,0-4.9,2.3-4.9,4.8v32.8h11.9
		v7.2H7.4v89.7H20v7.2H7.4v33.8c0,2.2,2.1,4.3,4.9,4.3h14.3c0.2-10.3,8.6-18.7,19.2-18.7c10.3,0,18.8,8.3,19,18.7h14.6
		c2.5,0,4.6-2.1,4.6-4.3v-33.8H71.5v-7.2h12.4V52.7H71.1v-7.2h12.3l0.5,1.2v-34C83.9,10.1,81.9,7.9,79.4,7.9z M26.7,45.5h14.6v7.2
		H26.7V45.5z M42,149.7H27.5v-7.2H42V149.7z M48.8,45.5h14.6v2.1h0.1v3h-0.1v2.1H48.8V45.5z M64,149.7H49.5v-7.2H64V149.7z"/>
	<path class="st0" d="M192.4,163l-13.2-30.3l-11.6,5l-2.8-6.6l11.6-5l-35.6-81.8l-11.6,5l-2.9-6.6l11.6-5L124.3,6.6
		c-1-2.4-3.8-3.4-5.8-2.4l-11.7,5.1c3.6,9.6-0.9,20.3-10.3,24.4c-9.5,4.1-20.4,0-24.8-9.2l-13.4,5.7v16.4l0.4,0.9l1,2.3l0.3,0.7v0.1
		l0.1,0.1l7.4,16.9l11.4-4.9l2.8,6.6l-11.4,4.9l35.8,81.8l11.4-4.8l2.8,6.6l-11.4,4.8l13.4,30.7c0.8,2.2,3.9,3.4,6.2,2.2l14.9-6.4
		c-3.6-9.6,0.9-20.3,10.3-24.3c9.4-4,20.3,0,24.7,9.2l11.7-5C192.1,167.9,193.2,165.2,192.4,163z M88.6,66.5l-0.8-2h-0.1l-1.2-2.7
		h0.1l-0.8-1.9l13.4-5.7l1.8,4.3l0.2,0.4l0.8,2L88.6,66.5z M108.8,57.8l-2.8-6.6l13.4-5.7l0.8,1.9l1.1,2.6l0.9,2.1L108.8,57.8z
		 M127.1,155l-2.1-4.8l-0.8-1.8l13.4-5.7l0.7,1.7l0.1-0.1l1.1,2.8l0.9,2.2L127.1,155z M147.3,146.3l-2.8-6.6l13.4-5.7l0.7,1.6
		l1.2,2.8l1,2.2L147.3,146.3z"/>
</g>
</svg>
