<?xml version="1.0" encoding="utf-8"?>
<!-- Generator: Adobe Illustrator 24.1.0, SVG Export Plug-In . SVG Version: 6.00 Build 0)  -->
<svg version="1.1" id="_x38_" xmlns="http://www.w3.org/2000/svg" xmlns:xlink="http://www.w3.org/1999/xlink" x="0px" y="0px"
	 viewBox="0 0 200 200" style="enable-background:new 0 0 200 200;" xml:space="preserve">
<style type="text/css">
	.st0{fill-rule:evenodd;clip-rule:evenodd;fill:#FFFFFF;}
</style>
<g>
	<path class="st0" d="M169.6,19.4c-0.2,0-0.4,0-0.6,0h-11.6v-5.7c0-3.3-2.6-5.9-5.8-5.9h-11.3c-3.2,0-5.7,2.6-5.7,5.9v5.7H65.5v-5.7
		c0-3.3-2.5-5.9-5.7-5.9H48.2c-3.2,0-5.7,2.6-5.7,5.9v5.7H30.9c-12.7,0-22.8,10.4-22.8,23.1v126.6c0,12.7,10.1,23.1,22.8,23.1h137.9
		c12.7,0,23.1-10.4,23.1-23.2V42.5C191.9,30,182,19.8,169.6,19.4z M54,180.7H30.9c-6.3,0-11.6-5.2-11.6-11.7v-17.3H54V180.7z
		 M54,140.1H19.3v-22.9H54V140.1z M54,105.7H19.3V76.9H54V105.7z M94.1,180.7H65.5v-29h28.6V180.7z M94.1,140.1H65.5v-22.9h28.6
		V140.1z M94.1,105.7H65.5V76.9h28.6V105.7z M134.5,180.7h-28.9v-29h28.9V180.7z M134.5,140.1h-28.9v-22.9h28.9V140.1z M134.5,105.7
		h-28.9V76.9h28.9V105.7z M180.4,169.1c0,6.3-5.2,11.6-11.6,11.6h-23.1v-29h34.7V169.1z M180.4,140.1h-34.7v-22.9h34.7V140.1z
		 M180.4,105.7h-34.7V76.9h34.7V105.7z"/>
</g>
</svg>
