<?xml version="1.0" encoding="utf-8"?>
<!-- Generator: Adobe Illustrator 24.1.0, SVG Export Plug-In . SVG Version: 6.00 Build 0)  -->
<svg version="1.1" id="_x38_" xmlns="http://www.w3.org/2000/svg" xmlns:xlink="http://www.w3.org/1999/xlink" x="0px" y="0px"
	 viewBox="0 0 200 200" style="enable-background:new 0 0 200 200;" xml:space="preserve">
<style type="text/css">
	.st0{fill:#FFFFFF;}
</style>
<g>
	<path class="st0" d="M141,17.9c-36.5,0-72.7,0-109.3,0c0,54.6,0,109.3,0,164.2c36.3,0,72.6,0,109.3,0c0-8.6-0.2-17,0.1-25.4
		c0.1-2.4,1-5.4,2.6-6.8c1.4-1.3,4.8-1.7,6.6-1c1.8,0.8,3.9,3.5,4,5.4c0.4,11.8,0.3,23.7,0.1,35.6c-0.1,4.1-3.1,5.9-6.9,6.2
		c-3.2,0.2-6.5,0.1-9.7,0.1c-36.7,0-73.4,0-110.2,0c-7.8,0-9.9-2-9.9-9.7c0-57.7,0-115.4,0-173.1c0-7.3,2.1-9.4,9.6-9.4
		c39.2,0,78.3,0,117.5,0c7.7,0,9.7,2.1,9.7,9.9c0,10.1,0,20.1,0,30.2c0,5.3-2.5,8.4-6.6,8.5c-4.3,0.1-7-3-7-8.7
		C140.9,35.3,141,26.7,141,17.9z"/>
	<path class="st0" d="M158.6,106.6c-2.7,0-4.2,0-5.8,0c-21.1,0-42.2,0-63.3,0c-1.3,0-2.6,0.1-3.9-0.1c-4-0.4-6.3-2.7-6.3-6.6
		c0-3.9,2.4-6.4,6.4-6.5c7.3-0.2,14.6-0.1,21.9-0.1c16.5,0,33.1,0,50.5,0c-1.1-1.5-1.7-2.5-2.5-3.3c-4.2-4.3-8.6-8.4-12.7-12.8
		c-2.7-2.9-2.8-6.3-0.1-9.2c2.7-2.9,6.4-3.2,9.2-0.6c9.7,9.3,19.3,18.9,28.6,28.6c2.5,2.6,2,6.1-0.7,8.8c-8.9,9-17.9,18-26.9,26.8
		c-3.2,3.2-7.2,3.3-10,0.6c-2.8-2.8-2.8-6.7,0.3-10c3.7-3.9,7.6-7.6,11.3-11.4C155.8,109.8,156.8,108.6,158.6,106.6z"/>
</g>
</svg>
