<?xml version="1.0" encoding="utf-8"?>
<!-- Generator: Adobe Illustrator 24.1.0, SVG Export Plug-In . SVG Version: 6.00 Build 0)  -->
<svg version="1.1" id="_x38_" xmlns="http://www.w3.org/2000/svg" xmlns:xlink="http://www.w3.org/1999/xlink" x="0px" y="0px"
	 viewBox="0 0 200 200" style="enable-background:new 0 0 200 200;" xml:space="preserve">
<style type="text/css">
	.st0{fill-rule:evenodd;clip-rule:evenodd;fill:#FFFFFF;}
	.st1{fill:#FFFFFF;}
</style>
<g>
	<g>
		<path class="st0" d="M-308.2,17.1c-0.2,0-0.4,0-0.5,0h-10.7v-5.3c0-3.1-2.4-5.5-5.4-5.5h-10.5c-3,0-5.3,2.4-5.3,5.5v5.3h-63.9
			v-5.3c0-3.1-2.3-5.5-5.3-5.5h-10.7c-3,0-5.3,2.4-5.3,5.5v5.3h-10.7c-11.8,0-21.1,9.6-21.1,21.4v117.1c0,11.8,9.3,21.4,21.1,21.4
			h98.2c-2.9-3.1-5.2-6.7-6.7-10.6h-22.4v-26.8h23.7c3-5.9,7.7-10.8,13.4-14.1v-17.8h32.1v17.6c4.2,2.3,7.8,5.4,10.6,9.2V38.5
			C-287.6,26.9-296.8,17.5-308.2,17.1z M-415.2,166.3h-21.4c-5.8,0-10.7-4.8-10.7-10.8v-16h32.1V166.3z M-415.2,128.8h-32.1v-21.2
			h32.1V128.8z M-415.2,97h-32.1V70.3h32.1V97z M-378.1,166.3h-26.5v-26.8h26.5V166.3z M-378.1,128.8h-26.5v-21.2h26.5V128.8z
			 M-378.1,97h-26.5V70.3h26.5V97z M-367.5,70.3h26.7V97h-26.7V70.3z M-340.7,128.8h-26.7v-21.2h26.7V128.8z M-330.3,97V70.3h32.1
			V97H-330.3z M-304.7,165.4c0.1,0.1,0.3,0.2,0.4,0.3c1.8,1.3,3.6,1.2,4.7-0.2c1-1.3,0.8-2.8-0.5-4.1
			C-301.1,163.2-302.8,164.6-304.7,165.4z M-314,133.3c-1.9,0-3.1,1.4-3.1,3.6v2.6h6.1c0-0.9,0-1.8,0-2.7
			C-311,134.7-312.2,133.3-314,133.3z"/>
	</g>
	<g>
		<path class="st1" d="M-287.6,125.4c-3.1-2.9-6.7-5.2-10.6-7c-4.8-2.1-10.1-3.3-15.7-3.3c-5.8,0-11.4,1.2-16.4,3.5
			c-3.8,1.7-7.3,4.1-10.4,6.9c-1.1,1-2.2,2.1-3.2,3.3c-2.7,3.2-5,6.8-6.6,10.7c-1.9,4.6-2.9,9.6-2.9,14.8c0,4.2,0.7,8.2,1.9,12
			c1.2,3.8,3,7.4,5.3,10.6c7.1,10,18.8,16.6,32,16.6c21.7,0.1,39.4-17.6,39.4-39.3C-274.8,142.9-279.7,132.6-287.6,125.4z
			 M-314.1,187.5c-9.6,0-18.2-4-24.3-10.5c-2.9-3.1-5.2-6.7-6.7-10.6c-1.4-3.7-2.2-7.8-2.2-12c0-5.3,1.3-10.4,3.5-14.9
			c3-5.9,7.7-10.8,13.4-14.1c4.8-2.7,10.3-4.2,16.2-4.2c5.7,0,11.1,1.5,15.9,4c4.2,2.3,7.8,5.4,10.6,9.2c4.2,5.6,6.7,12.5,6.7,20
			C-280.9,172.6-295.7,187.5-314.1,187.5z"/>
		<path class="st1" d="M-299.5,165.6c-1.1,1.5-3,1.6-4.7,0.2c-0.1-0.1-0.3-0.2-0.4-0.3c-3.6-2.7-7.1-5.4-10.7-8
			c-1.2-0.9-1.8-2-1.7-3.5c0.1-2.8,0-5.6,0-8.4v-8.6c0-2.2,1.3-3.6,3.1-3.6c1.8,0,3,1.4,3,3.5c0,0.9,0,1.8,0,2.7c0,4,0,7.9,0,11.9
			c0,1.3,0.4,2,1.4,2.8c3.1,2.2,6.1,4.5,9.1,6.8c0.2,0.2,0.4,0.3,0.6,0.5C-298.7,162.7-298.5,164.2-299.5,165.6z"/>
	</g>
</g>
<g>
	<g>
		<path class="st0" d="M50.6,178.4H27.5c-6.3,0-11.6-5.2-11.6-11.7v-17.3h34.7V178.4z M50.6,137.8H15.9v-22.9h34.7V137.8z
			 M50.6,103.4H15.9V74.6h34.7V103.4z M90.7,178.4H62.1v-29h28.6V178.4z M90.7,137.8H62.1v-22.9h28.6V137.8z M90.7,103.4H62.1V74.6
			h28.6V103.4z M142.3,74.6H177v28.8h-34.7V74.6z M102.2,103.4V74.6h28.9v28.8H102.2z M173,188.6c-2.4,0.8-4.9,1.3-7.6,1.3h-33.9
			h-104c-12.7,0-22.8-10.4-22.8-23.1V40.2c0-12.7,10.1-23.1,22.8-23.1h11.6v-5.7c0-3.3,2.5-5.9,5.7-5.9h11.6c3.2,0,5.7,2.6,5.7,5.9
			v5.7h69.1v-5.7c0-3.3,2.5-5.9,5.7-5.9h11.3c3.2,0,5.8,2.6,5.8,5.9v5.7h11.6c0.2,0,0.4,0,0.6,0c12.4,0.4,22.3,10.6,22.3,23.1v86.6
			v21.9c-0.1-0.3-0.2-0.7-0.2-1c-0.1-1.6-0.3-3.2-0.6-4.7c-1.1-5.6-3.5-10.8-6.8-15.2c-1.2-1.5-2.4-3-3.8-4.3v-8.5h-13.9
			c-3.8-1.3-7.9-2-12.1-2c-5.5,0-10.7,1.2-15.4,3.3c-1,0.5-2,1-2.9,1.5c-0.5,0.3-1.1,0.6-1.6,1v-3.7h-6.7h-22.2v22.9h6.3h7.2
			c-0.7,1.9-1.2,3.9-1.6,5.9c-0.3,1.9-0.5,3.7-0.6,5.7h-6.9h-4.6v29h14.7h9.5c6,5.2,13.6,8.5,22,9.1c2.4,0.6,4.9,0.9,7.6,0.9
			c16.1,0,29.5-11.4,32.5-26.6v5c0,3.9-0.9,7.5-2.6,10.8L173,188.6z"/>
	</g>
	<g>
		<path class="st1" d="M163.1,114.9c2,0.7,3.9,1.5,5.7,2.5c2.1,1.1,4,2.5,5.8,3.9c0.8,0.7,1.6,1.3,2.3,2v-8.5H163.1z M124.5,114.9
			c-0.5,0.4-1,0.7-1.4,1.1c-0.7,0.5-1.3,1.1-2,1.7c-1.3,1.2-2.5,2.4-3.6,3.7c-2.4,2.8-4.5,5.9-6.1,9.2c-0.5,0.9-0.9,1.9-1.3,2.9
			c-0.6,1.4-1.1,2.8-1.5,4.3h7.2c0.5-1.5,1.1-2.9,1.8-4.3c0.5-1,1-1.9,1.6-2.9c1.1-1.8,2.4-3.6,3.8-5.2c2.3-2.7,5.1-5,8.1-6.8v-3.7
			H124.5z M163.1,114.9c2,0.7,3.9,1.5,5.7,2.5c2.1,1.1,4,2.5,5.8,3.9c0.8,0.7,1.6,1.3,2.3,2v-8.5H163.1z M124.5,114.9
			c-0.5,0.4-1,0.7-1.4,1.1c-0.7,0.5-1.3,1.1-2,1.7c-1.3,1.2-2.5,2.4-3.6,3.7c-2.4,2.8-4.5,5.9-6.1,9.2c-0.5,0.9-0.9,1.9-1.3,2.9
			c-0.6,1.4-1.1,2.8-1.5,4.3h7.2c0.5-1.5,1.1-2.9,1.8-4.3c0.5-1,1-1.9,1.6-2.9c1.1-1.8,2.4-3.6,3.8-5.2c2.3-2.7,5.1-5,8.1-6.8v-3.7
			H124.5z M163.1,114.9c2,0.7,3.9,1.5,5.7,2.5c2.1,1.1,4,2.5,5.8,3.9c0.8,0.7,1.6,1.3,2.3,2v-8.5H163.1z M123,116
			c-0.7,0.5-1.3,1.1-2,1.7c-1.3,1.2-2.5,2.4-3.6,3.7c-2.4,2.8-4.5,5.9-6.1,9.2c-0.5,0.9-0.9,1.9-1.3,2.9c-0.6,1.4-1.1,2.8-1.5,4.3
			h7.2c0.5-1.5,1.1-2.9,1.8-4.3c0.5-1,1-1.9,1.6-2.9c1.1-1.8,2.4-3.6,3.8-5.2c2.3-2.7,5.1-5,8.1-6.8v-3.7h-6.7
			C124,115.3,123.5,115.7,123,116z M188.5,126.8c-0.3-0.4-0.6-0.9-0.8-1.3c-2-2.9-4.3-5.5-6.8-7.9c-1.9-1.7-3.9-3.3-6.1-4.7
			c-1.9-1.2-3.8-2.2-5.8-3.1c-5.4-2.4-11.4-3.8-17.7-3.8c-5.4,0-10.7,1-15.5,2.8c-1,0.4-2,0.8-2.9,1.2c-2.9,1.3-5.7,3-8.3,4.9
			c-0.5,0.4-1,0.7-1.4,1.1c-0.7,0.5-1.3,1.1-2,1.7c-1.3,1.2-2.5,2.4-3.6,3.7c-2.4,2.8-4.5,5.9-6.1,9.2c-0.5,0.9-0.9,1.9-1.3,2.9
			c-0.6,1.4-1.1,2.8-1.5,4.3c-0.6,1.9-1,3.9-1.3,5.9c-0.3,1.9-0.4,3.8-0.5,5.7c0,0.3,0,0.5,0,0.8c0,4.7,0.7,9.3,2.1,13.5
			c1.4,4.3,3.4,8.3,6,12c0.2,0.2,0.3,0.5,0.5,0.7c0.5,0.7,1,1.4,1.6,2c3.7,4.5,8.3,8.2,13.4,10.9c0.4,0.2,0.7,0.4,1.1,0.6
			c5.9,2.9,12.5,4.5,19.4,4.6c8,0,15.6-2.1,22.1-5.9c5-2.9,9.3-6.7,12.9-11.2c5.9-7.5,9.4-16.9,9.4-27.2
			C195.3,141.7,192.8,133.6,188.5,126.8z M126.5,178.4c-1-0.8-1.9-1.8-2.8-2.7c-0.2-0.2-0.4-0.5-0.7-0.7c-2.9-3.3-5.3-7.1-6.9-11.2
			c-1.6-4.2-2.5-8.7-2.5-13.5c0-0.3,0-0.6,0-0.9c0-1.9,0.2-3.8,0.5-5.7c0.4-2,0.9-4,1.6-5.9c0.5-1.5,1.1-2.9,1.8-4.3
			c0.5-1,1-1.9,1.6-2.9c1.1-1.8,2.4-3.6,3.8-5.2c2.3-2.7,5.1-5,8.1-6.8c0.5-0.3,1-0.7,1.6-1c1-0.5,1.9-1,2.9-1.5
			c4.7-2.1,9.9-3.3,15.4-3.3c4.2,0,8.3,0.7,12.1,2c2,0.7,3.9,1.5,5.7,2.5c2.1,1.1,4,2.5,5.8,3.9c0.8,0.7,1.6,1.3,2.3,2
			c1.4,1.3,2.7,2.8,3.8,4.3c3.3,4.4,5.7,9.6,6.8,15.2c0.3,1.5,0.5,3.1,0.6,4.7c0.1,0.9,0.1,1.7,0.1,2.6c0,2.5-0.3,5-0.7,7.4
			c-3.4,17.1-18.5,30-36.6,30c-0.9,0-1.7,0-2.6-0.1C140.1,186.9,132.4,183.6,126.5,178.4z M124.5,114.9c-0.5,0.4-1,0.7-1.4,1.1
			c-0.7,0.5-1.3,1.1-2,1.7c-1.3,1.2-2.5,2.4-3.6,3.7c-2.4,2.8-4.5,5.9-6.1,9.2c-0.5,0.9-0.9,1.9-1.3,2.9c-0.6,1.4-1.1,2.8-1.5,4.3
			h7.2c0.5-1.5,1.1-2.9,1.8-4.3c0.5-1,1-1.9,1.6-2.9c1.1-1.8,2.4-3.6,3.8-5.2c2.3-2.7,5.1-5,8.1-6.8v-3.7H124.5z M163.1,114.9
			c2,0.7,3.9,1.5,5.7,2.5c2.1,1.1,4,2.5,5.8,3.9c0.8,0.7,1.6,1.3,2.3,2v-8.5H163.1z M124.5,114.9c-0.5,0.4-1,0.7-1.4,1.1
			c-0.7,0.5-1.3,1.1-2,1.7c-1.3,1.2-2.5,2.4-3.6,3.7c-2.4,2.8-4.5,5.9-6.1,9.2c-0.5,0.9-0.9,1.9-1.3,2.9c-0.6,1.4-1.1,2.8-1.5,4.3
			h7.2c0.5-1.5,1.1-2.9,1.8-4.3c0.5-1,1-1.9,1.6-2.9c1.1-1.8,2.4-3.6,3.8-5.2c2.3-2.7,5.1-5,8.1-6.8v-3.7H124.5z M163.1,114.9
			c2,0.7,3.9,1.5,5.7,2.5c2.1,1.1,4,2.5,5.8,3.9c0.8,0.7,1.6,1.3,2.3,2v-8.5H163.1z M124.5,114.9c-0.5,0.4-1,0.7-1.4,1.1
			c-0.7,0.5-1.3,1.1-2,1.7c-1.3,1.2-2.5,2.4-3.6,3.7c-2.4,2.8-4.5,5.9-6.1,9.2c-0.5,0.9-0.9,1.9-1.3,2.9c-0.6,1.4-1.1,2.8-1.5,4.3
			h7.2c0.5-1.5,1.1-2.9,1.8-4.3c0.5-1,1-1.9,1.6-2.9c1.1-1.8,2.4-3.6,3.8-5.2c2.3-2.7,5.1-5,8.1-6.8v-3.7H124.5z M163.1,114.9
			c2,0.7,3.9,1.5,5.7,2.5c2.1,1.1,4,2.5,5.8,3.9c0.8,0.7,1.6,1.3,2.3,2v-8.5H163.1z"/>
		<path class="st1" d="M167.5,162.9c-1.3,1.6-3.3,1.7-5.4,0.2c-0.2-0.1-0.3-0.2-0.5-0.4c-4-3-8-6-12.1-9c-1.4-1-2-2.3-2-4
			c0-2,0-4,0-6c0-1.2,0-2.3,0-3.5v-9.7c0-2.5,1.4-4.1,3.5-4c2,0,3.4,1.6,3.4,4v0.2c0,1,0,1.9,0,2.9c0,1.4,0,2.9,0,4.3c0,2,0,4,0,5.9
			c0,1.1,0,2.1,0,3.2c0,1.1,0.3,1.8,0.9,2.5c0.2,0.2,0.5,0.4,0.7,0.6c3.5,2.5,6.8,5.1,10.2,7.6c0.2,0.2,0.4,0.4,0.6,0.6
			C168.3,159.7,168.6,161.4,167.5,162.9z"/>
	</g>
</g>
</svg>
