<?xml version="1.0" encoding="utf-8"?>
<!-- Generator: Adobe Illustrator 24.1.0, SVG Export Plug-In . SVG Version: 6.00 Build 0)  -->
<svg version="1.1" id="_x38_" xmlns="http://www.w3.org/2000/svg" xmlns:xlink="http://www.w3.org/1999/xlink" x="0px" y="0px"
	 viewBox="0 0 200 200" style="enable-background:new 0 0 200 200;" xml:space="preserve">
<style type="text/css">
	.st0{fill:#FFFFFF;}
</style>
<g>
	<path class="st0" d="M194,90.7c-0.2-7-3.4-10.4-10.4-11c-6.1-0.6-10.2-3.4-12.6-9.1c-2.4-5.8-1.4-10.7,2.6-15.3
		c4.3-5.1,4.2-10.1-0.3-14.8c-4.5-4.7-9.1-9.4-13.9-13.9c-4.5-4.3-9.7-4.5-14.4-0.4c-4.8,4.2-9.8,5.3-15.7,2.8
		c-6-2.5-8.6-6.9-9.1-13.2c-0.5-6-4-9.4-10.1-9.7C103.5,5.8,96.7,5.8,90,6c-6.3,0.2-9.8,3.6-10.4,10c-0.5,6.1-3.1,10.4-8.8,12.9
		c-5.9,2.5-10.9,1.6-15.8-2.6c-5-4.3-10-4.1-14.8,0.5c-4.6,4.4-9.1,8.9-13.5,13.5C22.3,45,22,50.1,26.3,55c4.2,4.8,5.2,9.8,2.6,15.8
		c-2.5,5.7-6.7,8.4-12.8,8.9C9.5,80.3,6.2,83.8,6,90.5c-0.2,6.4-0.2,12.7,0,19.1c0.2,6.7,3.5,10.2,10.1,10.7
		c6.1,0.5,10.3,3.2,12.8,8.9c2.5,5.9,1.5,10.9-2.7,15.7c-4.2,4.9-4,10,0.6,14.8c4.4,4.6,8.9,9.1,13.5,13.5c4.7,4.5,9.8,4.7,14.8,0.4
		c4.6-4,9.5-5.1,15.3-2.7c6,2.4,8.8,6.8,9.3,13.1c0.5,6.3,4,9.7,10.4,9.9c6.5,0.2,13.1,0.2,19.6,0c6.6-0.2,10-3.5,10.6-10.2
		c0.5-6.1,3.3-10.3,9-12.7c5.7-2.4,10.6-1.5,15.4,2.4c2,1.6,4.5,2.6,7.1,4c2.7-1.4,5.4-2.1,7.3-3.8c5.1-4.6,9.9-9.5,14.6-14.5
		c4.1-4.4,4.1-9.5-0.1-14.4c-4-4.7-5-9.6-2.6-15.3c2.4-5.7,6.5-8.6,12.6-9.1c7-0.6,10.2-4.1,10.3-11
		C194.1,103.1,194.1,96.9,194,90.7z M50,99.1c0.7-27.6,23.5-49.6,50.7-49.1c27.4,0.5,49.9,23.6,49.2,50.6
		c-0.6,27.7-23.2,49.8-50.5,49.4C71.8,149.5,49.3,126.4,50,99.1z"/>
</g>
</svg>
